<svg width="22" height="22" viewBox="0 0 22 22" fill="none" xmlns="http://www.w3.org/2000/svg">
<g clip-path="url(#clip0_7_232)">
<path d="M0.417969 0.5V2.114H3.64697C3.99397 2.114 4.28997 2.341 4.40397 2.669L5.90997 16.121C5.98021 16.7115 6.26386 17.256 6.70753 17.652C7.1512 18.0479 7.7243 18.2681 8.31897 18.271H18.176V16.657H8.31997C8.12162 16.6593 7.92955 16.5875 7.78139 16.4556C7.63322 16.3237 7.53964 16.1413 7.51897 15.944L7.41797 15.042H17.659C18.807 15.042 19.809 14.222 20.037 13.1L21.582 5.356H6.32697L5.97997 2.278L5.95497 2.203C5.80153 1.71049 5.49498 1.27977 5.07989 0.973493C4.6648 0.667211 4.16282 0.501339 3.64697 0.5H0.417969ZM16.562 18.271C15.672 18.271 14.948 18.996 14.948 19.886C14.948 20.775 15.673 21.5 16.562 21.5C17.452 21.5 18.176 20.775 18.176 19.886C18.176 18.996 17.451 18.271 16.562 18.271ZM8.48997 18.271C7.59997 18.271 6.87597 18.996 6.87597 19.886C6.87597 20.775 7.60097 21.5 8.48997 21.5C9.37997 21.5 10.104 20.775 10.104 19.886C10.104 18.996 9.37897 18.271 8.48997 18.271ZM6.50997 6.971H19.614L18.454 12.778C18.4181 12.9621 18.3189 13.1278 18.1738 13.2465C18.0286 13.3652 17.8465 13.4294 17.659 13.428H7.23497L6.50997 6.97V6.971Z" fill="black"/>
</g>
<defs>
<clipPath id="clip0_7_232">
<rect width="22" height="22" fill="white"/>
</clipPath>
</defs>
</svg>
