<svg width="24" height="24" viewBox="0 0 24 24" fill="none" xmlns="http://www.w3.org/2000/svg">
<path d="M12 2.258C11.183 2.258 10.422 2.61 9.89601 3.2C9.4478 2.91886 8.9291 2.77046 8.40001 2.772C7.69149 2.76907 7.0079 3.03333 6.48558 3.51209C5.96327 3.99084 5.64063 4.6489 5.58201 5.355C4.99274 5.40277 4.4336 5.63539 3.98432 6.01966C3.53504 6.40394 3.21856 6.92026 3.08001 7.495C2.99171 7.85518 2.97531 8.22924 3.03177 8.59577C3.08822 8.96229 3.21642 9.31408 3.40901 9.631C3.25577 10.106 3.27074 10.6193 3.45139 11.0846C3.63204 11.5499 3.96737 11.9388 4.40101 12.186L7.18401 20.461C7.29624 20.8314 7.52442 21.156 7.83496 21.3869C8.1455 21.6179 8.52199 21.7431 8.90901 21.744H14.578C15.369 21.744 16.075 21.219 16.303 20.461L19.011 12.407C19.4434 12.2906 19.8297 12.0445 20.118 11.702C20.3259 11.4545 20.477 11.1645 20.5606 10.8522C20.6443 10.54 20.6584 10.2133 20.602 9.895C20.5896 9.82383 20.5763 9.75283 20.562 9.682C20.971 9.039 21.102 8.252 20.92 7.497C20.7817 6.92196 20.4653 6.40528 20.016 6.02064C19.5668 5.636 19.0075 5.40305 18.418 5.355C18.3598 4.64873 18.0373 3.9904 17.5149 3.51155C16.9925 3.03271 16.3087 2.7686 15.6 2.772C15.0712 2.77095 14.5528 2.91969 14.105 3.201C13.8405 2.90418 13.5163 2.66671 13.1535 2.50418C12.7906 2.34165 12.3976 2.25775 12 2.258ZM12 3.8C12.529 3.8 12.978 4.12 13.175 4.575C13.266 4.788 13.429 4.965 13.654 5.017L13.867 5.069C13.9218 5.08353 13.9783 5.09093 14.035 5.091C14.1428 5.08985 14.2488 5.06401 14.345 5.01547C14.4412 4.96693 14.5251 4.89698 14.59 4.811C14.709 4.65627 14.862 4.53098 15.0371 4.4448C15.2122 4.35862 15.4048 4.31387 15.6 4.314C15.875 4.31115 16.1435 4.39765 16.3651 4.56049C16.5868 4.72333 16.7496 4.95371 16.829 5.217C16.909 5.483 16.901 5.737 16.832 5.964C16.741 6.261 16.802 6.579 17.031 6.787C17.1681 6.91627 17.3496 6.98787 17.538 6.987C17.621 6.9869 17.7034 6.97339 17.782 6.947C17.905 6.907 18.036 6.885 18.173 6.885C18.4093 6.88393 18.6413 6.94825 18.8434 7.07086C19.0454 7.19346 19.2096 7.36956 19.3178 7.57968C19.4259 7.7898 19.4739 8.02574 19.4563 8.26141C19.4386 8.49708 19.3562 8.72328 19.218 8.915C19 9.215 18.968 9.607 19.046 9.97C19.059 10.033 19.072 10.096 19.083 10.16C19.1006 10.2554 19.097 10.3534 19.0725 10.4473C19.0481 10.5411 19.0033 10.6284 18.9414 10.7031C18.8795 10.7778 18.802 10.8379 18.7143 10.8794C18.6267 10.9208 18.531 10.9426 18.434 10.943H14.444C14.3612 10.9294 14.2768 10.9294 14.194 10.943H9.81401C9.73026 10.929 9.64476 10.929 9.56101 10.943H5.50401C5.06801 10.943 4.74001 10.522 4.87001 10.105L4.87601 10.089C4.94258 9.88064 4.96364 9.66041 4.93776 9.44321C4.91188 9.22601 4.83967 9.01689 4.72601 8.83C4.59076 8.60633 4.52711 8.34666 4.54359 8.0858C4.56008 7.82494 4.6559 7.57534 4.81823 7.37048C4.98056 7.16561 5.20163 7.01525 5.45182 6.93957C5.702 6.86388 5.96934 6.86647 6.21801 6.947C6.29801 6.973 6.38101 6.987 6.46401 6.987C6.64601 6.987 6.82401 6.923 6.96301 6.795L6.97101 6.788C7.20001 6.579 7.26101 6.261 7.17001 5.964C7.09639 5.72034 7.09709 5.46026 7.17201 5.217C7.2516 4.95406 7.41431 4.72402 7.63572 4.56139C7.85713 4.39876 8.1253 4.3123 8.40001 4.315C8.81201 4.315 9.17601 4.51 9.41001 4.812C9.54601 4.989 9.75001 5.092 9.96301 5.092C10.0208 5.09169 10.0782 5.08396 10.134 5.069L10.347 5.017C10.572 4.965 10.735 4.788 10.827 4.577C10.9249 4.34684 11.0883 4.15051 11.2968 4.01238C11.5054 3.87425 11.7499 3.8004 12 3.8ZM9.68601 6.315C9.4814 6.315 9.28516 6.39628 9.14048 6.54097C8.99579 6.68565 8.91451 6.88189 8.91451 7.0865C8.91451 7.29111 8.99579 7.48735 9.14048 7.63203C9.28516 7.77672 9.4814 7.858 9.68601 7.858C9.89063 7.858 10.0869 7.77672 10.2315 7.63203C10.3762 7.48735 10.4575 7.29111 10.4575 7.0865C10.4575 6.88189 10.3762 6.68565 10.2315 6.54097C10.0869 6.39628 9.89063 6.315 9.68601 6.315ZM15.343 7.344C15.1384 7.344 14.9422 7.42528 14.7975 7.56997C14.6528 7.71465 14.5715 7.91089 14.5715 8.1155C14.5715 8.32012 14.6528 8.51635 14.7975 8.66103C14.9422 8.80572 15.1384 8.887 15.343 8.887C15.5476 8.887 15.7439 8.80572 15.8885 8.66103C16.0332 8.51635 16.1145 8.32012 16.1145 8.1155C16.1145 7.91089 16.0332 7.71465 15.8885 7.56997C15.7439 7.42528 15.5476 7.344 15.343 7.344ZM12.258 8.372C12.1544 8.36827 12.051 8.38546 11.9542 8.42255C11.8573 8.45964 11.7689 8.51587 11.6943 8.58788C11.6196 8.65989 11.5602 8.7462 11.5197 8.84166C11.4791 8.93713 11.4582 9.03978 11.4582 9.1435C11.4582 9.24722 11.4791 9.34987 11.5197 9.44534C11.5602 9.5408 11.6196 9.62711 11.6943 9.69912C11.7689 9.77113 11.8573 9.82736 11.9542 9.86445C12.051 9.90154 12.1544 9.91873 12.258 9.915C12.4578 9.90781 12.647 9.82337 12.7859 9.67947C12.9247 9.53558 13.0022 9.34344 13.0022 9.1435C13.0022 8.94356 12.9247 8.75142 12.7859 8.60753C12.647 8.46363 12.4578 8.37919 12.258 8.372ZM7.62801 8.886C7.4234 8.886 7.22716 8.96728 7.08248 9.11197C6.93779 9.25665 6.85651 9.45289 6.85651 9.6575C6.85651 9.86211 6.93779 10.0583 7.08248 10.203C7.22716 10.3477 7.4234 10.429 7.62801 10.429C7.83263 10.429 8.02886 10.3477 8.17354 10.203C8.31823 10.0583 8.39951 9.86211 8.39951 9.6575C8.39951 9.45289 8.31823 9.25665 8.17354 9.11197C8.02886 8.96728 7.83263 8.886 7.62801 8.886ZM6.13101 12.486H9.00001L9.90701 20.201H8.90901C8.85325 20.2022 8.79865 20.185 8.75377 20.1518C8.70889 20.1187 8.67627 20.0716 8.66101 20.018C8.65879 20.01 8.65646 20.002 8.65401 19.994L6.13101 12.487V12.486ZM10.554 12.486H13.396L12.034 20.201H11.461L10.554 12.487V12.486ZM14.962 12.486H17.355L14.832 19.994C14.8296 20.002 14.8273 20.01 14.825 20.018C14.8101 20.0717 14.7777 20.1188 14.733 20.152C14.6882 20.1851 14.6337 20.2024 14.578 20.201H13.6L14.96 12.487L14.962 12.486Z" fill="black"/>
</svg>
