<svg width="21" height="22" viewBox="0 0 21 22" fill="none" xmlns="http://www.w3.org/2000/svg">
<g clip-path="url(#clip0_7_234)">
<path d="M10.5 0.5C4.714 0.5 0 5.214 0 11C0 16.786 4.714 21.5 10.5 21.5C16.286 21.5 21 16.786 21 11C21 5.214 16.286 0.5 10.5 0.5ZM10.5 2.115C11.6672 2.11342 12.8233 2.34216 13.902 2.78811C14.9807 3.23407 15.9608 3.88847 16.7862 4.71383C17.6115 5.5392 18.2659 6.5193 18.7119 7.59799C19.1578 8.67668 19.3866 9.83276 19.385 11C19.385 13.164 18.615 15.14 17.34 16.68C16.9988 15.708 16.4559 14.8192 15.7468 14.0719C15.0378 13.3246 14.1787 12.7358 13.226 12.344C13.638 11.9685 13.9674 11.5115 14.1935 11.0019C14.4195 10.4924 14.5372 9.94143 14.539 9.384C14.5356 8.31403 14.1089 7.28889 13.3521 6.53249C12.5953 5.77609 11.57 5.3499 10.5 5.347C9.42986 5.35017 8.40446 5.77675 7.64785 6.53355C6.89123 7.29036 6.4649 8.31586 6.462 9.386C6.462 10.553 6.972 11.606 7.774 12.346C6.82225 12.7377 5.96417 13.3264 5.25615 14.0733C4.54814 14.8203 4.00621 15.7087 3.666 16.68C2.33713 15.086 1.61143 13.0753 1.616 11C1.61442 9.83285 1.84313 8.67685 2.28902 7.59822C2.73491 6.5196 3.38922 5.53954 4.21448 4.71419C5.03974 3.88884 6.01972 3.23441 7.0983 2.7884C8.17687 2.34239 9.33285 2.11355 10.5 2.115ZM10.5 6.962C10.8187 6.96001 11.1347 7.02132 11.4296 7.14238C11.7245 7.26344 11.9924 7.44185 12.2178 7.66724C12.4432 7.89263 12.6216 8.16053 12.7426 8.45541C12.8637 8.75028 12.925 9.06625 12.923 9.385C12.925 9.70375 12.8637 10.0197 12.7426 10.3146C12.6216 10.6095 12.4432 10.8774 12.2178 11.1028C11.9924 11.3282 11.7245 11.5066 11.4296 11.6276C11.1347 11.7487 10.8187 11.81 10.5 11.808C10.1813 11.81 9.86528 11.7487 9.57041 11.6276C9.27554 11.5066 9.00763 11.3282 8.78224 11.1028C8.55685 10.8774 8.37844 10.6095 8.25738 10.3146C8.13632 10.0197 8.07501 9.70375 8.077 9.385C8.07501 9.06625 8.13632 8.75028 8.25738 8.45541C8.37844 8.16053 8.55685 7.89263 8.78224 7.66724C9.00763 7.44185 9.27554 7.26344 9.57041 7.14238C9.86528 7.02132 10.1813 6.96001 10.5 6.962ZM10.5 13.423C13.245 13.423 15.498 15.373 16.021 17.96C14.4521 19.2089 12.5053 19.8877 10.5 19.885C8.411 19.885 6.5 19.165 4.985 17.96C5.502 15.373 7.755 13.423 10.5 13.423Z" fill="black"/>
</g>
<defs>
<clipPath id="clip0_7_234">
<rect width="21" height="22" fill="white"/>
</clipPath>
</defs>
</svg>
