<svg width="20" height="20" viewBox="0 0 20 20" fill="none" xmlns="http://www.w3.org/2000/svg">
<g clip-path="url(#clip0_11_71)">
<path d="M6.05996 0.715C4.57514 0.716853 3.15169 1.30758 2.10186 2.3576C1.05202 3.40762 0.461549 4.83118 0.459961 6.316V14.316C0.462079 15.801 1.0532 17.2245 2.10362 18.2742C3.15405 19.3238 4.57797 19.9139 6.06296 19.915H14.063C15.5476 19.9126 16.9707 19.3215 18.0201 18.2713C19.0696 17.2212 19.6596 15.7976 19.661 14.313V6.313C19.6586 4.82836 19.0675 3.40526 18.0173 2.35583C16.9671 1.30641 15.5436 0.716322 14.059 0.715H6.05996ZM15.66 3.915C15.8721 3.915 16.0756 3.99929 16.2256 4.14931C16.3757 4.29934 16.46 4.50283 16.46 4.715C16.46 4.92717 16.3757 5.13066 16.2256 5.28069C16.0756 5.43071 15.8721 5.515 15.66 5.515C15.4478 5.515 15.2443 5.43071 15.0943 5.28069C14.9442 5.13066 14.86 4.92717 14.86 4.715C14.86 4.50283 14.9442 4.29934 15.0943 4.14931C15.2443 3.99929 15.4478 3.915 15.66 3.915ZM10.06 5.515C12.708 5.515 14.86 7.668 14.86 10.315C14.86 12.962 12.708 15.115 10.06 15.115C8.78733 15.1137 7.5672 14.6075 6.66731 13.7077C5.76742 12.8078 5.26128 11.5876 5.25996 10.315C5.25996 7.668 7.41396 5.515 10.06 5.515ZM10.06 7.115C9.21127 7.11513 8.39739 7.4524 7.79737 8.05261C7.19734 8.65282 6.86033 9.46681 6.86046 10.3155C6.86059 11.1642 7.19786 11.9781 7.79807 12.5781C8.39828 13.1781 9.21227 13.5151 10.061 13.515C10.9097 13.515 11.7236 13.1779 12.3237 12.5777C12.9238 11.9776 13.261 11.1637 13.261 10.315C13.261 9.46631 12.9238 8.65237 12.3237 8.05226C11.7236 7.45214 10.9087 7.115 10.06 7.115Z" fill="black"/>
</g>
<defs>
<clipPath id="clip0_11_71">
<rect width="20" height="20" fill="white"/>
</clipPath>
</defs>
</svg>
