<svg width="171" height="40" viewBox="0 0 171 40" fill="none" xmlns="http://www.w3.org/2000/svg">
<g clip-path="url(#clip0_1_8)">
<mask id="mask0_1_8" style="mask-type:luminance" maskUnits="userSpaceOnUse" x="0" y="0" width="171" height="40">
<path d="M0 0.248413H171V39.2104H0V0.248413Z" fill="white"/>
</mask>
<g mask="url(#mask0_1_8)">
<path d="M170.495 17.6233C170.658 17.7798 170.786 17.968 170.873 18.1763C170.96 18.3845 171.003 18.6084 171 18.834C171.003 19.0597 170.96 19.2835 170.873 19.4918C170.786 19.7001 170.658 19.8883 170.495 20.0447C170.341 20.2078 170.154 20.3372 169.948 20.4248C169.741 20.5125 169.518 20.5565 169.294 20.5541C169.069 20.5567 168.846 20.5128 168.64 20.4251C168.433 20.3375 168.247 20.2079 168.092 20.0447C167.933 19.8863 167.808 19.6974 167.725 19.4893C167.641 19.2812 167.6 19.0583 167.605 18.834C167.6 18.6097 167.641 18.3868 167.725 18.1788C167.808 17.9707 167.934 17.7817 168.092 17.6233C168.249 17.464 168.436 17.3382 168.642 17.2537C168.849 17.1692 169.071 17.1278 169.294 17.132C169.517 17.1271 169.739 17.1681 169.945 17.2525C170.152 17.3369 170.339 17.4636 170.495 17.6233ZM170.391 19.9394C170.535 19.7944 170.648 19.6217 170.723 19.4316C170.797 19.2415 170.833 19.0382 170.826 18.834C170.833 18.5266 170.747 18.2242 170.58 17.9661C170.413 17.7079 170.172 17.5058 169.889 17.3859C169.7 17.3075 169.498 17.2686 169.294 17.2719C169.092 17.2698 168.892 17.3093 168.706 17.3879C168.521 17.4664 168.353 17.5825 168.214 17.7287C168.07 17.8739 167.955 18.0464 167.878 18.2361C167.8 18.4258 167.761 18.629 167.762 18.834C167.76 19.0391 167.799 19.2423 167.877 19.4321C167.955 19.6219 168.069 19.7943 168.214 19.9394C168.354 20.0851 168.521 20.2007 168.707 20.2793C168.892 20.3578 169.092 20.3976 169.294 20.3961C169.498 20.3995 169.701 20.3608 169.89 20.2822C170.079 20.2036 170.249 20.0869 170.391 19.9394ZM169.729 19.0447L170.095 19.7114H169.625L169.346 19.15H169.137V19.7114H168.702V17.9567H169.346C169.433 17.9517 169.519 17.9648 169.6 17.995C169.68 18.0251 169.754 18.0718 169.816 18.132C169.879 18.1785 169.929 18.2396 169.962 18.3101C169.996 18.3805 170.012 18.4581 170.008 18.536C170.014 18.6387 169.991 18.7409 169.942 18.8311C169.893 18.921 169.819 18.9951 169.729 19.0447ZM169.137 18.7814H169.346C169.409 18.7994 169.475 18.7994 169.538 18.7814C169.555 18.7301 169.555 18.6746 169.538 18.6233C169.538 18.4834 169.538 18.4127 169.294 18.4127H169.102L169.137 18.7814ZM69.3337 16.1839C70.2307 17.2303 70.692 18.581 70.6223 19.9574V27.6972H67.4008V20.1854C67.4329 19.5522 67.235 18.9288 66.8437 18.43C66.648 18.2229 66.4095 18.0607 66.1449 17.9548C65.8803 17.849 65.5959 17.8018 65.3112 17.8167C64.9853 17.7947 64.6586 17.8482 64.3567 17.973C64.0547 18.0977 63.7856 18.2904 63.5702 18.536C63.128 19.1523 62.9129 19.9026 62.9613 20.6595V27.6798H59.7397V20.1681C59.7766 19.5371 59.585 18.9139 59.2 18.4127C59.0009 18.2049 58.7595 18.0426 58.492 17.9366C58.2246 17.8307 57.9374 17.7836 57.6502 17.7986C57.3241 17.7754 56.997 17.8283 56.6949 17.9531C56.3927 18.078 56.1237 18.2714 55.9091 18.518C55.4387 19.1215 55.2091 19.8782 55.2648 20.6414V27.6618H52.0439V15.0958H55.2648V16.4299C55.6407 15.8564 56.1607 15.3919 56.7728 15.0828C57.3834 14.7747 58.0648 14.6338 58.7476 14.6745C59.4329 14.611 60.1223 14.7418 60.7368 15.0518C61.3534 15.3629 61.8708 15.8403 62.2304 16.4299C62.6507 15.843 63.2139 15.3731 63.8668 15.0648C64.5181 14.7581 65.2374 14.6239 65.9556 14.6752C66.6032 14.6361 67.2514 14.7415 67.8532 14.984C68.4558 15.2274 68.9972 15.6012 69.4383 16.0785M84.8125 15.1312V27.6972H81.5916V26.2931C81.1794 26.8847 80.6198 27.3582 79.9682 27.6669C79.3186 27.9746 78.5994 28.106 77.883 28.0478C77.2564 28.0667 76.6328 27.9549 76.0518 27.7195C75.4698 27.4832 74.9431 27.129 74.5048 26.6791C73.5684 25.6319 73.0862 24.2556 73.1643 22.8529V15.1305H76.3851V22.4496C76.3623 22.7978 76.4109 23.1471 76.5277 23.476C76.6446 23.8049 76.8273 24.1065 77.0648 24.3623C77.2951 24.585 77.5681 24.7588 77.8672 24.8734C78.1664 24.9879 78.4857 25.0409 78.8058 25.029C79.1727 25.0503 79.5399 24.9924 79.8824 24.8592C80.2249 24.726 80.5347 24.5206 80.7907 24.257C81.3355 23.6066 81.6041 22.7688 81.5389 21.9228V15.1312H84.8125ZM90.9937 9.33955H87.7721V27.6972H90.9937V9.33955ZM98.2363 18.2373V23.5022C98.2248 23.6771 98.2482 23.8525 98.305 24.0182C98.3619 24.1839 98.4511 24.3367 98.5675 24.4676C98.8392 24.6849 99.1771 24.8025 99.525 24.801C100.035 24.8277 100.547 24.8277 101.057 24.801V27.7325C99.4773 28.1005 97.8186 27.8761 96.3907 27.1005C95.8941 26.6532 95.5119 26.0936 95.2759 25.4684C95.0394 24.8417 94.9561 24.1676 95.0328 23.5022V18.2373H92.856V15.1312H95.0328V11.621H98.2363V15.1312H101.057V18.2373H98.2363ZM106.56 15.1131H103.339V27.6964H106.56V15.1131ZM112.862 27.5738C112.06 27.2504 111.336 26.76 110.738 26.1351C110.122 25.5176 109.637 24.7811 109.315 23.9705C108.991 23.1578 108.835 22.2879 108.858 21.4135C108.836 20.5395 108.991 19.6701 109.315 18.8578C109.637 18.0472 110.122 17.3108 110.738 16.6933C111.347 16.0651 112.08 15.5702 112.89 15.2401C113.699 14.9111 114.567 14.7543 115.439 14.7798C116.607 14.7618 117.758 15.0653 118.765 15.6572C119.727 16.2109 120.512 17.0266 121.028 18.0093L118.26 19.6587C118.015 19.1403 117.621 18.7065 117.129 18.4127C116.599 18.1094 115.997 17.9576 115.387 17.974C114.944 17.9601 114.503 18.0387 114.092 18.205C113.682 18.3712 113.31 18.6213 113.001 18.9394C112.372 19.6082 112.029 20.496 112.044 21.4142C112.033 21.8666 112.113 22.3167 112.277 22.7384C112.441 23.1601 112.687 23.545 113.001 23.8709C113.314 24.1863 113.685 24.4352 114.096 24.6011C114.506 24.7671 114.945 24.8464 115.387 24.8363C115.997 24.8519 116.599 24.7001 117.129 24.3977C117.624 24.1155 118.02 23.686 118.26 23.1689L121.063 24.7837C120.546 25.7534 119.784 26.5705 118.852 27.1531C117.846 27.7503 116.696 28.0598 115.526 28.0478C114.645 28.058 113.77 27.897 112.95 27.5738M126.008 15.1131H122.787V27.6964H126.008V15.1131ZM139.258 16.1485C139.723 16.666 140.08 17.2702 140.31 17.9264C140.54 18.5829 140.638 19.2792 140.6 19.9747V27.6972H137.378V20.3788C137.402 20.0303 137.355 19.6805 137.238 19.3513C137.121 19.0221 136.938 18.7205 136.699 18.4653C136.468 18.2438 136.195 18.0707 135.896 17.9562C135.597 17.8417 135.278 17.7882 134.958 17.7986C134.589 17.7782 134.219 17.8364 133.874 17.9695C133.529 18.1026 133.216 18.3075 132.956 18.5707C132.41 19.2208 132.142 20.0587 132.207 20.9048V27.6972H128.986V15.1312H132.207V16.5353C132.623 15.9432 133.185 15.4695 133.84 15.1608C134.492 14.8532 135.214 14.7219 135.933 14.7798C136.559 14.7611 137.183 14.8732 137.764 15.1088C138.346 15.3449 138.873 15.6989 139.311 16.1485M149.584 25.117C150.116 25.1505 150.647 25.0529 151.132 24.8327C151.618 24.6121 152.043 24.2759 152.37 23.8536L154.964 25.363C154.363 26.2399 153.548 26.9479 152.595 27.4194C151.645 27.889 150.59 28.1055 149.532 28.0478C148.619 28.0896 147.707 27.9447 146.852 27.6221C145.995 27.2986 145.212 26.8045 144.552 26.1697C143.938 25.5444 143.456 24.8013 143.136 23.9849C142.816 23.1668 142.664 22.2925 142.689 21.4142C142.663 20.5399 142.813 19.6693 143.131 18.8542C143.447 18.0406 143.924 17.2994 144.535 16.6752C145.15 16.0479 145.89 15.5553 146.706 15.2286C147.52 14.9023 148.394 14.7495 149.271 14.7798C150.116 14.7539 150.957 14.9096 151.736 15.2365C152.518 15.5639 153.221 16.0544 153.798 16.6752C154.977 17.9654 155.602 19.6673 155.539 21.4142C155.539 21.8615 155.498 22.3081 155.417 22.7475H145.997C146.199 23.4957 146.662 24.1468 147.302 24.5831C147.94 25.0177 148.713 25.2073 149.479 25.117H149.584ZM152.265 20.2381C152.152 19.4775 151.746 18.7912 151.134 18.3254C150.564 17.9067 149.873 17.6848 149.166 17.6933C148.397 17.6607 147.64 17.8963 147.025 18.36C146.442 18.8339 146.047 19.4996 145.91 20.2381H152.265ZM160.971 19.5187C161.486 19.7525 162.023 19.9351 162.573 20.0628C163.218 20.2275 163.852 20.4326 164.471 20.6768C165.108 20.9303 165.667 21.348 166.09 21.8875C166.537 22.5094 166.77 23.2613 166.752 24.029C166.774 24.6066 166.654 25.1809 166.402 25.7011C166.15 26.2214 165.774 26.6717 165.307 27.0124C164.256 27.7388 162.996 28.1023 161.72 28.0478C160.65 28.1524 159.574 27.9219 158.64 27.3884C157.704 26.8526 156.955 26.0414 156.496 25.0651L159.3 23.4676C159.451 23.9857 159.778 24.4345 160.223 24.736C160.668 25.0369 161.204 25.1718 161.737 25.117C162.887 25.117 163.478 24.749 163.478 24.029C163.478 23.6956 163.27 23.4149 162.817 23.2043C162.297 22.9793 161.761 22.7914 161.215 22.6422C160.567 22.4794 159.933 22.2684 159.317 22.0109C158.687 21.7618 158.134 21.35 157.715 20.8175C157.255 20.2349 157.02 19.5058 157.054 18.764C157.032 18.2113 157.14 17.6612 157.37 17.158C157.6 16.6549 157.945 16.2129 158.377 15.8679C159.35 15.1414 160.541 14.7697 161.755 14.8144C162.721 14.8036 163.674 15.0395 164.523 15.4999C165.354 15.9603 166.037 16.6481 166.491 17.4826L163.757 18.992C163.597 18.5949 163.319 18.2567 162.959 18.0238C162.602 17.7916 162.181 17.6761 161.755 17.6933C161.387 17.6851 161.024 17.7828 160.71 17.9747C160.586 18.0571 160.484 18.1693 160.414 18.3009C160.344 18.4326 160.308 18.5796 160.309 18.7287C160.309 19.062 160.519 19.3427 160.971 19.5534" fill="white"/>
<path d="M30.6617 0.248413C30.0205 0.252293 29.3921 0.428211 28.842 0.757805C28.2903 1.08892 27.8367 1.56113 27.5281 2.12581L19.5186 17.922L30.3486 39.2458H39.0544V0.248413H30.6617Z" fill="url(#paint0_linear_1_8)"/>
<path d="M0 39.2104H8.70585L19.5532 17.886L11.5443 2.0919C11.2498 1.51726 10.8021 1.0353 10.2506 0.699368C9.70156 0.364949 9.07021 0.19006 8.42734 0.194305H0.0346329" fill="url(#paint1_linear_1_8)"/>
<path d="M8.67114 39.2104H30.3485L19.5011 17.746L8.67114 39.2104Z" fill="url(#paint2_linear_1_8)"/>
<path d="M102.973 11.621C102.973 12.7177 103.861 13.6218 104.958 13.6218C106.054 13.6218 106.943 12.717 106.943 11.621C106.943 10.5243 106.054 9.62022 104.958 9.62022C103.861 9.62022 102.973 10.5243 102.973 11.621Z" fill="url(#paint3_linear_1_8)"/>
<path d="M122.404 11.621C122.404 12.7177 123.292 13.6218 124.388 13.6218C125.485 13.6218 126.374 12.717 126.374 11.621C126.374 10.5243 125.485 9.62022 124.388 9.62022C123.292 9.62022 122.404 10.5243 122.404 11.621Z" fill="url(#paint4_linear_1_8)"/>
</g>
</g>
<defs>
<linearGradient id="paint0_linear_1_8" x1="38.304" y1="13.0597" x2="38.304" y2="38.5077" gradientUnits="userSpaceOnUse">
<stop stop-color="#14D7CE"/>
<stop offset="1" stop-color="#02A8D7"/>
</linearGradient>
<linearGradient id="paint1_linear_1_8" x1="6.96482" y1="-0.102961" x2="6.96482" y2="38.5084" gradientUnits="userSpaceOnUse">
<stop stop-color="#F9D500"/>
<stop offset="1" stop-color="#FFA500"/>
</linearGradient>
<linearGradient id="paint2_linear_1_8" x1="19.5185" y1="21.1335" x2="19.5185" y2="42.3693" gradientUnits="userSpaceOnUse">
<stop stop-color="#F16C8F"/>
<stop offset="0.51" stop-color="#E65494"/>
<stop offset="1" stop-color="#C63894"/>
</linearGradient>
<linearGradient id="paint3_linear_1_8" x1="-4672.35" y1="-5551.66" x2="-4663.3" y2="-5551.66" gradientUnits="userSpaceOnUse">
<stop stop-color="#F16C8F"/>
<stop offset="0.51" stop-color="#E65494"/>
<stop offset="1" stop-color="#C63894"/>
</linearGradient>
<linearGradient id="paint4_linear_1_8" x1="120.45" y1="9.42758" x2="124.419" y2="9.42758" gradientUnits="userSpaceOnUse">
<stop stop-color="#00ABBF"/>
<stop offset="0.47" stop-color="#00A3C1"/>
<stop offset="1" stop-color="#0094C5"/>
</linearGradient>
<clipPath id="clip0_1_8">
<rect width="171" height="40" fill="white"/>
</clipPath>
</defs>
</svg>
