<svg width="14" height="14" viewBox="0 0 14 14" fill="none" xmlns="http://www.w3.org/2000/svg">
<g clip-path="url(#clip0_9_21)">
<path fill-rule="evenodd" clip-rule="evenodd" d="M7.00002 10.514L10.447 12.594C10.5032 12.6279 10.5681 12.6446 10.6337 12.6419C10.6993 12.6392 10.7626 12.6174 10.8159 12.579C10.8691 12.5407 10.9099 12.4876 10.9332 12.4262C10.9566 12.3649 10.9614 12.298 10.947 12.234L10.034 8.314L13.074 5.68C13.1236 5.63661 13.1593 5.57956 13.1766 5.516C13.1939 5.45245 13.1921 5.38519 13.1714 5.32265C13.1507 5.26011 13.112 5.20507 13.0602 5.1644C13.0084 5.12373 12.9457 5.09924 12.88 5.094L8.87402 4.754L7.30702 1.06C7.28182 0.999472 7.23927 0.947761 7.18472 0.911385C7.13018 0.87501 7.06608 0.855598 7.00052 0.855598C6.93496 0.855598 6.87086 0.87501 6.81632 0.911385C6.76177 0.947761 6.71922 0.999472 6.69402 1.06L5.12702 4.754L1.12002 5.094C1.05477 5.10018 0.992775 5.12542 0.941766 5.16658C0.890757 5.20774 0.852985 5.26299 0.833156 5.32547C0.813327 5.38794 0.812317 5.45486 0.830253 5.51791C0.848188 5.58095 0.884275 5.63732 0.934019 5.68L3.97402 8.314L3.06002 12.234C3.04568 12.298 3.05047 12.3649 3.07379 12.4262C3.09711 12.4876 3.13793 12.5407 3.19119 12.579C3.24444 12.6174 3.30779 12.6392 3.37336 12.6419C3.43893 12.6446 3.50383 12.6279 3.56002 12.594L7.00002 10.514Z" fill="black"/>
</g>
<defs>
<clipPath id="clip0_9_21">
<rect width="14" height="13" fill="white" transform="translate(0 0.5)"/>
</clipPath>
</defs>
</svg>
