<svg width="18" height="14" viewBox="0 0 18 14" fill="none" xmlns="http://www.w3.org/2000/svg">
<path d="M16.5 3.25H15.75C15.5512 3.24947 15.3608 3.17028 15.2203 3.02975C15.0797 2.88921 15.0005 2.69875 15 2.5V1.75C15 1.55109 14.921 1.36032 14.7803 1.21967C14.6397 1.07902 14.4489 1 14.25 1H12.75C12.5511 1 12.3603 1.07902 12.2197 1.21967C12.079 1.36032 12 1.55109 12 1.75V3.25C12 3.44891 11.921 3.63968 11.7803 3.78033C11.6397 3.92098 11.4489 4 11.25 4C11.0511 4 10.8603 3.92098 10.7197 3.78033C10.579 3.63968 10.5 3.44891 10.5 3.25V1.75C10.5 1.55109 10.421 1.36032 10.2803 1.21967C10.1397 1.07902 9.94891 1 9.75 1H3.75C3.55109 1 3.36032 1.07902 3.21967 1.21967C3.07902 1.36032 3 1.55109 3 1.75V2.5C3 2.912 2.662 3.25 2.25 3.25H1.5C1.30109 3.25 1.11032 3.32902 0.96967 3.46967C0.829018 3.61032 0.75 3.80109 0.75 4V10C0.75 10.414 1.086 10.75 1.5 10.75H2.25C2.662 10.75 3 11.087 3 11.5V12.25C3 12.664 3.336 13 3.75 13H9.75C9.94891 13 10.1397 12.921 10.2803 12.7803C10.421 12.6397 10.5 12.4489 10.5 12.25V10.75C10.5 10.5511 10.579 10.3603 10.7197 10.2197C10.8603 10.079 11.0511 10 11.25 10C11.4489 10 11.6397 10.079 11.7803 10.2197C11.921 10.3603 12 10.5511 12 10.75V12.25C12 12.664 12.336 13 12.75 13H14.25C14.4489 13 14.6397 12.921 14.7803 12.7803C14.921 12.6397 15 12.4489 15 12.25V11.5C15 11.087 15.337 10.75 15.75 10.75H16.5C16.6989 10.75 16.8897 10.671 17.0303 10.5303C17.171 10.3897 17.25 10.1989 17.25 10V4C17.25 3.80109 17.171 3.61032 17.0303 3.46967C16.8897 3.32902 16.6989 3.25 16.5 3.25ZM12 7.75C12 7.94891 11.921 8.13968 11.7803 8.28033C11.6397 8.42098 11.4489 8.5 11.25 8.5C11.0511 8.5 10.8603 8.42098 10.7197 8.28033C10.579 8.13968 10.5 7.94891 10.5 7.75V6.25C10.5 6.05109 10.579 5.86032 10.7197 5.71967C10.8603 5.57902 11.0511 5.5 11.25 5.5C11.4489 5.5 11.6397 5.57902 11.7803 5.71967C11.921 5.86032 12 6.05109 12 6.25V7.75Z" fill="black"/>
</svg>
