<svg width="20" height="22" viewBox="0 0 20 22" fill="none" xmlns="http://www.w3.org/2000/svg">
<g clip-path="url(#clip0_11_75)">
<path d="M20 9.01957C18.1083 9.0241 16.263 8.43414 14.7248 7.33305V15.0124C14.7242 16.4347 14.2895 17.823 13.4787 18.9915C12.6679 20.1601 11.5196 21.0533 10.1875 21.5516C8.85538 22.05 7.40284 22.1298 6.02414 21.7803C4.64543 21.4309 3.40626 20.6689 2.47234 19.5961C1.53841 18.5234 0.954236 17.1911 0.797928 15.7774C0.64162 14.3638 0.920628 12.936 1.59764 11.6852C2.27466 10.4344 3.31742 9.42002 4.58648 8.77782C5.85554 8.13561 7.29042 7.89615 8.69925 8.09144V11.9539C8.05457 11.7511 7.36229 11.7572 6.72129 11.9714C6.08028 12.1855 5.52333 12.5967 5.12996 13.1462C4.73659 13.6958 4.52693 14.3556 4.53091 15.0314C4.53489 15.7072 4.75231 16.3645 5.15213 16.9093C5.55194 17.4542 6.1137 17.8588 6.75718 18.0654C7.40067 18.2719 8.09297 18.2699 8.73522 18.0595C9.37747 17.8492 9.93682 17.4413 10.3334 16.894C10.73 16.3468 10.9435 15.6882 10.9435 15.0124V0H14.7248C14.7221 0.319318 14.7489 0.638201 14.8047 0.952617C14.9361 1.6545 15.2093 2.32221 15.6076 2.91489C16.0059 3.50757 16.5209 4.01276 17.1211 4.39957C17.9751 4.96422 18.9763 5.26518 20 5.26496V9.01957Z" fill="black"/>
</g>
<defs>
<clipPath id="clip0_11_75">
<rect width="19.25" height="22" fill="white" transform="translate(0.75)"/>
</clipPath>
</defs>
</svg>
