<svg width="20" height="22" viewBox="0 0 20 22" fill="none" xmlns="http://www.w3.org/2000/svg">
<g clip-path="url(#clip0_27_1500)">
<path d="M5.80937 0.760547L5.5 1.375H1.375C0.614453 1.375 0 1.98945 0 2.75C0 3.51055 0.614453 4.125 1.375 4.125H17.875C18.6355 4.125 19.25 3.51055 19.25 2.75C19.25 1.98945 18.6355 1.375 17.875 1.375H13.75L13.4406 0.760547C13.2086 0.292188 12.7316 0 12.2117 0H7.03828C6.51836 0 6.04141 0.292188 5.80937 0.760547ZM17.875 5.5H1.375L2.28594 20.0664C2.35469 21.1535 3.25703 22 4.34414 22H14.9059C15.993 22 16.8953 21.1535 16.9641 20.0664L17.875 5.5Z" fill="black"/>
</g>
<defs>
<clipPath id="clip0_27_1500">
<rect width="19.25" height="22" fill="white"/>
</clipPath>
</defs>
</svg>
